<svg width="64" height="60" viewBox="0 0 64 60" fill="none" xmlns="http://www.w3.org/2000/svg">
<path fill-rule="evenodd" clip-rule="evenodd" d="M31.125 52.8906C28.9261 52.7378 26.746 52.3821 24.6125 51.8281C21.9796 52.6316 19.1963 52.8134 16.4813 52.3594C16.3738 52.342 16.2651 52.3337 16.1563 52.3344C15.1875 52.3344 13.9156 52.8969 12.0625 54.0844V52.1313C12.0621 51.7933 11.9719 51.4616 11.8011 51.17C11.6304 50.8785 11.3852 50.6375 11.0906 50.4719C10.2844 50.0156 9.53437 49.4906 8.85 48.9125C6.15 46.625 4.625 43.575 4.625 40.3438C4.625 39.2594 4.79688 38.2063 5.12188 37.2C4.30625 35.6781 3.64687 34.0781 3.1625 32.4188C1.5964 34.7657 0.75723 37.5223 0.75 40.3438C0.75 44.7344 2.79375 48.8281 6.32812 51.8219C6.91806 52.3212 7.5391 52.7825 8.1875 53.2031V57.7688C8.1875 59.3406 10 60.2438 11.2781 59.3094C12.4867 58.4059 13.7382 57.5612 15.0281 56.7781C15.3975 56.557 15.7818 56.3618 16.1781 56.1938C17.2406 56.3531 18.3281 56.4344 19.425 56.4344C23.8375 56.4344 27.9125 55.1125 31.1219 52.8906H31.125ZM54.4562 43.7594C60.0312 39.0313 63.25 32.5906 63.25 25.6875C63.25 11.5844 49.9438 0.3125 33.6969 0.3125C17.4469 0.3125 4.14062 11.5844 4.14062 25.6875C4.14062 39.7938 17.45 51.0656 33.6969 51.0656C35.5219 51.0656 37.3281 50.925 39.0969 50.6438C39.8625 50.825 42.9219 52.6438 47.3313 55.8625C48.9281 57.0313 51.1938 55.9031 51.1938 53.9375V46.15C52.3356 45.4301 53.4258 44.6313 54.4562 43.7594V43.7594ZM38.9906 45.8406C38.8563 45.8406 38.7188 45.85 38.5844 45.8719C36.9906 46.1406 35.3531 46.2781 33.6969 46.2781C19.9719 46.2781 8.9875 36.9719 8.9875 25.6875C8.9875 14.4063 19.9719 5.1 33.6969 5.1C47.4156 5.1 58.4062 14.4063 58.4062 25.6875C58.4062 31.1438 55.8406 36.2813 51.3031 40.125C50.1625 41.0875 48.9094 41.9625 47.5656 42.725C46.8125 43.15 46.3469 43.9438 46.3469 44.8V49.2906C42.8594 46.95 40.5656 45.8406 38.9906 45.8406V45.8406ZM46.2938 30.4781C48.4344 30.4781 50.1688 28.7594 50.1688 26.6469C50.1688 24.5313 48.4344 22.8156 46.2938 22.8156C44.1531 22.8156 42.4187 24.5313 42.4187 26.6469C42.4187 28.7625 44.1531 30.4781 46.2938 30.4781ZM33.6969 30.4781C35.8375 30.4781 37.5719 28.7594 37.5719 26.6469C37.5719 24.5313 35.8375 22.8156 33.6969 22.8156C31.5563 22.8156 29.8219 24.5313 29.8219 26.6469C29.8219 28.7625 31.5563 30.4781 33.6969 30.4781V30.4781ZM21.1 30.4781C23.2406 30.4781 24.975 28.7594 24.975 26.6469C24.975 24.5313 23.2406 22.8156 21.1 22.8156C18.9594 22.8156 17.225 24.5313 17.225 26.6469C17.225 28.7625 18.9594 30.4781 21.1 30.4781Z" fill="white"/>
</svg>