<svg width="18" height="18" viewBox="0 0 18 18" fill="none" xmlns="http://www.w3.org/2000/svg">
<path fill-rule="evenodd" clip-rule="evenodd" d="M11.4212 12.5973C10.2923 13.4748 8.87376 13.9974 7.33317 13.9974C3.65127 13.9974 0.666504 11.0126 0.666504 7.33073C0.666504 3.64883 3.65127 0.664062 7.33317 0.664062C11.0151 0.664062 13.9998 3.64883 13.9998 7.33073C13.9998 8.87132 13.4773 10.2899 12.5997 11.4188L17.0891 15.9081C17.4145 16.2336 17.4145 16.7612 17.0891 17.0867C16.7637 17.4121 16.236 17.4121 15.9106 17.0867L11.4212 12.5973ZM12.3332 7.33073C12.3332 10.0922 10.0946 12.3307 7.33317 12.3307C4.57175 12.3307 2.33317 10.0922 2.33317 7.33073C2.33317 4.56931 4.57175 2.33073 7.33317 2.33073C10.0946 2.33073 12.3332 4.56931 12.3332 7.33073Z" fill="#777E91"/>
</svg>
