<svg width="33" height="32" viewBox="0 0 33 32" fill="none" xmlns="http://www.w3.org/2000/svg">
<g clip-path="url(#clip0_38_27440)">
<path d="M16.4982 29.3245C24.1321 29.3245 30.3206 23.136 30.3206 15.5021C30.3206 7.86819 24.1321 1.67969 16.4982 1.67969C8.86428 1.67969 2.67578 7.86819 2.67578 15.5021C2.67578 23.136 8.86428 29.3245 16.4982 29.3245Z" fill="white"/>
<path d="M16.5 0C13.4344 0 10.4376 0.909059 7.88867 2.61222C5.33971 4.31538 3.35303 6.73615 2.17987 9.56841C1.00672 12.4007 0.699764 15.5172 1.29784 18.5239C1.89591 21.5306 3.37214 24.2924 5.53985 26.4602C7.70757 28.6279 10.4694 30.1041 13.4761 30.7022C16.4828 31.3002 19.5993 30.9933 22.4316 29.8201C25.2639 28.647 27.6846 26.6603 29.3878 24.1113C31.0909 21.5624 32 18.5656 32 15.5C32.0059 13.4704 31.612 11.4596 30.8408 9.5822C30.0696 7.70485 28.9362 5.99779 27.5052 4.55848C26.0743 3.11917 24.3738 1.9758 22.501 1.19366C20.6282 0.411511 18.6197 0.00590564 16.5901 0H16.5ZM16.7627 16.0254L15.1489 21.4673H23.7809C23.8381 21.4653 23.8951 21.4746 23.9487 21.4946C24.0022 21.5147 24.0514 21.5451 24.0932 21.5841C24.135 21.6232 24.1687 21.6701 24.1924 21.7221C24.2161 21.7742 24.2293 21.8305 24.2312 21.8877V22.0303L23.4806 24.6199C23.4475 24.7423 23.3738 24.8499 23.2715 24.9249C23.1692 24.9999 23.0444 25.0379 22.9177 25.0327H9.70703L11.9213 17.4891L9.44432 18.2397L10.0073 16.5133L12.4843 15.7627L15.5993 5.17918C15.6336 5.0574 15.7076 4.9506 15.8096 4.87579C15.9117 4.80097 16.0358 4.76245 16.1622 4.76634H19.5024C19.5596 4.76434 19.6166 4.77362 19.6702 4.79367C19.7238 4.81371 19.7729 4.84412 19.8147 4.88316C19.8566 4.9222 19.8903 4.9691 19.914 5.02118C19.9377 5.07326 19.9509 5.1295 19.9528 5.18668V5.3293L17.3257 14.2615L19.8027 13.5109L19.2772 15.3123L16.7627 16.0254Z" fill="#345D9D"/>
</g>
<defs>
<clipPath id="clip0_38_27440">
<rect width="31" height="31" fill="white" transform="translate(1)"/>
</clipPath>
</defs>
</svg>
