<svg width="28" height="28" viewBox="0 0 28 28" fill="none" xmlns="http://www.w3.org/2000/svg">
<path d="M13.9994 0.664062C11.3623 0.664062 8.78441 1.44605 6.59175 2.91113C4.3991 4.37622 2.69013 6.4586 1.68096 8.89495C0.671793 11.3313 0.407748 14.0122 0.922218 16.5986C1.43669 19.185 2.70656 21.5608 4.57126 23.4255C6.43597 25.2902 8.81174 26.5601 11.3982 27.0745C13.9846 27.589 16.6655 27.325 19.1018 26.3158C21.5382 25.3066 23.6205 23.5977 25.0856 21.405C26.5507 19.2123 27.3327 16.6345 27.3327 13.9974C27.3327 12.2464 26.9878 10.5126 26.3177 8.89495C25.6477 7.27727 24.6656 5.80742 23.4274 4.56931C22.1893 3.33119 20.7195 2.34906 19.1018 1.679C17.4841 1.00894 15.7503 0.664063 13.9994 0.664062ZM13.9994 24.6641C11.8897 24.6641 9.8274 24.0385 8.07327 22.8664C6.31915 21.6943 4.95198 20.0284 4.14464 18.0794C3.33731 16.1303 3.12607 13.9856 3.53765 11.9164C3.94922 9.8473 4.96512 7.94668 6.45688 6.45492C7.94864 4.96316 9.84926 3.94726 11.9184 3.53569C13.9875 3.12411 16.1322 3.33535 18.0813 4.14268C20.0304 4.95002 21.6963 6.31719 22.8684 8.07131C24.0404 9.82544 24.666 11.8877 24.666 13.9974C24.666 16.8264 23.5422 19.5395 21.5418 21.5399C19.5414 23.5403 16.8283 24.6641 13.9994 24.6641ZM19.3327 12.6641H15.3327V8.66406C15.3327 8.31044 15.1922 7.9713 14.9422 7.72125C14.6921 7.4712 14.353 7.33073 13.9994 7.33073C13.6457 7.33073 13.3066 7.4712 13.0565 7.72125C12.8065 7.9713 12.666 8.31044 12.666 8.66406V12.6641H8.66602C8.3124 12.6641 7.97326 12.8045 7.72321 13.0546C7.47316 13.3046 7.33269 13.6438 7.33269 13.9974C7.33269 14.351 7.47316 14.6902 7.72321 14.9402C7.97326 15.1903 8.3124 15.3307 8.66602 15.3307H12.666V19.3307C12.666 19.6844 12.8065 20.0235 13.0565 20.2735C13.3066 20.5236 13.6457 20.6641 13.9994 20.6641C14.353 20.6641 14.6921 20.5236 14.9422 20.2735C15.1922 20.0235 15.3327 19.6844 15.3327 19.3307V15.3307H19.3327C19.6863 15.3307 20.0255 15.1903 20.2755 14.9402C20.5255 14.6902 20.666 14.351 20.666 13.9974C20.666 13.6438 20.5255 13.3046 20.2755 13.0546C20.0255 12.8045 19.6863 12.6641 19.3327 12.6641Z" fill="#1DAEEF"/>
</svg>