<svg width="33" height="32" viewBox="0 0 33 32" fill="none" xmlns="http://www.w3.org/2000/svg">
<g clip-path="url(#clip0_38_27392)">
<path d="M16.5 32C25.3366 32 32.5 24.8366 32.5 16C32.5 7.16344 25.3366 0 16.5 0C7.66344 0 0.5 7.16344 0.5 16C0.5 24.8366 7.66344 32 16.5 32Z" fill="#8DC351"/>
<path d="M21.73 10.523C20.954 8.551 19.008 8.373 16.742 8.813L15.935 6L14.223 6.491L15.009 9.231C14.559 9.359 14.101 9.501 13.646 9.641L12.856 6.883L11.145 7.373L11.95 10.186C11.582 10.3 11.22 10.412 10.865 10.514L10.862 10.504L8.5 11.181L9.025 13.011C9.025 13.011 10.283 12.623 10.268 12.653C10.962 12.454 11.303 12.792 11.468 13.121L12.388 16.325C12.435 16.312 12.498 16.296 12.572 16.285L12.391 16.337L13.678 20.827C13.71 21.054 13.682 21.439 13.198 21.579C13.225 21.592 11.952 21.935 11.952 21.935L12.199 24.078L14.427 23.438C14.842 23.321 15.252 23.211 15.653 23.098L16.47 25.943L18.18 25.453L17.373 22.638C17.8317 22.5163 18.2891 22.3896 18.745 22.258L19.547 25.061L21.26 24.57L20.446 21.73C23.277 20.739 25.084 19.436 24.559 16.66C24.137 14.426 22.835 13.748 21.088 13.824C21.936 13.034 22.301 11.966 21.73 10.524V10.523ZM21.08 17.293C21.69 19.42 17.98 20.222 16.82 20.556L15.739 16.786C16.899 16.453 20.443 15.076 21.079 17.294L21.08 17.293ZM18.758 12.203C19.312 14.138 16.211 14.783 15.244 15.06L14.264 11.641C15.23 11.364 18.179 10.186 18.758 12.204V12.203Z" fill="#FCFCFD"/>
</g>
<defs>
<clipPath id="clip0_38_27392">
<rect width="32" height="32" fill="white" transform="translate(0.5)"/>
</clipPath>
</defs>
</svg>