<svg width="33" height="32" viewBox="0 0 33 32" fill="none" xmlns="http://www.w3.org/2000/svg">
<g clip-path="url(#clip0_38_27416)">
<path d="M16.5 32C25.3366 32 32.5 24.8366 32.5 16C32.5 7.16344 25.3366 0 16.5 0C7.66344 0 0.5 7.16344 0.5 16C0.5 24.8366 7.66344 32 16.5 32Z" fill="#23292F"/>
<path d="M23.57 8H26.46L20.445 13.957C19.3934 14.9931 17.9763 15.5739 16.5 15.5739C15.0237 15.5739 13.6066 14.9931 12.555 13.957L6.535 8H9.43L14 12.523C14.6655 13.1799 15.5629 13.5482 16.498 13.5482C17.4331 13.5482 18.3305 13.1799 18.996 12.523L23.57 8ZM9.395 24.563H6.5L12.555 18.57C13.6066 17.5339 15.0237 16.9531 16.5 16.9531C17.9763 16.9531 19.3934 17.5339 20.445 18.57L26.5 24.562H23.605L19 20C18.3345 19.3431 17.4371 18.9748 16.502 18.9748C15.5669 18.9748 14.6695 19.3431 14.004 20L9.394 24.563H9.395Z" fill="#FCFCFD"/>
</g>
<defs>
<clipPath id="clip0_38_27416">
<rect width="32" height="32" fill="white" transform="translate(0.5)"/>
</clipPath>
</defs>
</svg>